<svg version="1.0" xmlns="http://www.w3.org/2000/svg" width="1058.667" height="1306.667" fill="#F00" viewBox="0 0 794 980"><path d="M379.6 1.1c-29.8 4.1-57 18-78.1 40-18.3 19.1-30.7 43.2-34.9 67.8l-1.2 7.6-83.5.6c-88.6.6-85.5.4-102.6 5.4C49 131.3 21.1 157 9 187.4c-6.5 16.2-7.5 22-7.4 45.1 0 19.8.1 21.6 2.7 31 8.6 31.1 29.9 57.2 58.5 71.5l8.1 4.1.4 271.2.3 271.2 2.1 9c5.5 23.7 16.1 42.5 33 58.6 17.2 16.4 39 26.8 62.5 29.9 5.8.8 76.4 1 233.3.8l225-.3 9.6-2.6c20.9-5.8 35.8-14.1 50.3-28 17.6-16.8 28.7-37 33.8-61.7.9-4.3 1.2-72.4 1.5-277L723 339l5.6-2.5c8.5-3.8 21.4-12.6 29.3-20.1 14.9-14 26.3-33 31.8-52.9 2.7-9.6 2.8-11 2.7-31.5 0-18.7-.3-22.5-2.2-29.2-8-29-24.5-52-48.7-67.7-11.3-7.4-23.2-12-41.3-16.3-3.1-.7-32.7-1.3-88.1-1.7l-83.5-.6-1.3-7.9c-.7-4.3-2.7-12-4.4-17-15.2-45.8-53-79.3-100.4-89.1-9.5-2-33.2-2.8-42.9-1.4zm29.4 53c30.1 4.9 55 26.3 63.9 55.3 1.1 3.7 2.1 7 2.1 7.2 0 .2-35.1.4-78 .4s-78-.2-78-.4 1-3.5 2.1-7.2C332.6 72 371 47.9 409 54.1zm291.4 119.6c18.9 7.1 32.6 22 37.6 40.6 1.9 7.1 2.2 9.9 1.7 20.7-.7 18.8-5.4 29.9-17.6 42-7.8 7.7-16 12.3-26.7 15-7.6 2-12.2 2-298.4 2-287.3 0-290.8 0-298.5-2-16.7-4.3-31.1-15.9-38.3-31.2-5-10.3-6.2-16.1-6.2-29.1 0-10.7 2.2-21.2 5.9-28.6 7.4-14.4 22.1-26.2 38-30.7 3.7-1 63.7-1.2 300.6-1.1l296 .2 5.9 2.2zM669 611.8c0 235.4-.2 265.4-1.5 270.7-5.6 21.4-23.5 38.5-45 43-10.5 2.2-440.5 2.2-451 0-21.4-4.5-39.4-21.7-45-43-1.3-5.3-1.5-35.3-1.5-270.7V347h544v264.8z"/><path d="M245.5 508.5c-5.8 2.2-10.6 6.5-14 12.6l-3 5.4v313l3 5.4c4.8 8.7 13.9 14.1 23.8 14.1 8.5 0 18.7-6.4 23-14.4l2.2-4.1V683c0-151.7-.1-157.6-1.9-161-2.6-5-7.4-9.8-12.1-12.2-5.2-2.7-15.5-3.3-21-1.3zM386.5 509.4c-6.3 2.9-11.2 7.7-13.9 13.6l-2.1 4.5V683c0 173.6-.6 158.4 7.1 167 5.8 6.4 10.5 8.5 19.4 8.5 8.9 0 13.6-2.1 19.4-8.5 7.7-8.6 7.1 6.6 7.1-167V527.5l-2.2-4.6c-6.8-13.6-21.9-19.5-34.8-13.5zM532 507.9c-7.7 2.4-14.6 8.8-17.4 16.2-1.5 4-1.6 16.8-1.4 160.4l.3 156 2.7 4.7c10.8 18.3 36.1 18.1 46.3-.3l3-5.4v-313l-3-5.4c-3.5-6.3-8.2-10.5-14.4-12.6-4.7-1.6-11.9-1.8-16.1-.6z"/></svg>